<?xml version='1.0' encoding='utf-8'?>
<svg version='1.1' xmlns='http://www.w3.org/2000/svg' xmlns:xlink='http://www.w3.org/1999/xlink' x='0' y='0' viewBox='0 0 1000 1000'>
<style>
  #Tale {
    fill: #936F8E;
  }
  #Head {
    fill: #D6B261;
  }
</style>
<g id="Tale">
  <path d="M805.2,607.3l-11.1,22.3c53.5,38.2,78.2,86.9,64.9,101.6c-8.3,9.1-30,8.8-68.9-6.2
    c-27.4-12.5-50.9-26.6-82-44.5c-13.1-8-38-25.7-64.8-46.3c-26.8-20.6-89.2-74.4-89.2-74.4l0,0c-46-40.7-156.1-116.6-204.3-148
    c-28.3-18.4-86.4-51.3-137.5-77.6c-51.5-26.5-83.4-39-106.7-46.1c-33.2-10.1,75.1,32.5,139.9,71.5
    c123.5,74.1,203.1,141,180.9,236.3c-14.2,61.2-76.1,52.1-121,11.5c-41.6-37.7-39.7-87.5-1.1-95.7c31.9-6.8,39.4,22.3,42.5,19.1
    c6.5-6.6-30.9-99.1-89.5-68.5c-41.1,21.5-65.4,97.1,2.4,186.9c45.9,60.8,98.4,106.7,162.6,117.5c75.6,12.7,129.1-20.8,157.5-66.5
    c15.5-24.9,18-51.3,13.2-75.1c5.8,5,12.8,10.6,21,16.9c30.2,23.2,64.7,45.1,79.9,54.5C622.9,770.3,532,808.9,447.2,805.6
    c-60.9,0.1-122.5-17.8-188.7-88.1c10.9,13.7,23.3,26.5,37.1,38.2c115.5,97.4,290.1,72.8,408.5-52.9c30.6,18.3,54.4,30,72.9,37.1
    c86.1,36.8,152.8,57.4,162.8,46.3C961.5,761.7,862.2,650.5,805.2,607.3z"/>
</g>
<g id="Head">
  <path d="M726.3,198.9c-59.3-50-134.7-67.5-210.1-55.7c91.6-3.7,166.5,11.9,230.4,91.1
    c83,94.5,88.3,249.7,14.4,378.1c-0.5,0.8-1.1,1.7-1.6,2.5c-1.5,1.6-3.4,4.2-5.7,7.8c-32.7,51-137.3-45.7-187.2-97.6
    c-42.4-44.2-138.7-214.3-49.4-257.7c74.9-36.4,97.6,47.5,89,43.4c-32.1-15.2-54.8,10.3-68.1,39.3
    c-24.8,54.1,17.2,143.7,100.3,159.6c66.8,12.8,125.5-27.6,142.9-82.8c21.9-69.6-28.7-160.1-105.2-210
    c-78.8-51.4-203.6-60.3-267.9,19.2c-40.6,50.3-49.2,87.7-45.5,119.9c1.4,12.2,0.5,17.5,4.3,22.2c-15-10.1-42.6-27.4-84-51.1
    c-51.4-29.5-163.4-76.8-204.6-90.6c-41.2-13.8,27.7,14.9,77.9,37.8c50.3,22.8,82.3,43,123,66.6c30.2,17.5,72.2,45.4,117.1,76.1
    c3.3,2.2,5.9,3.9,8,5.1c15.9,10.7,29.1,19.8,75.1,50.1c78.5,51.7,209.4,191.9,261.8,183.6c3.1-0.5,6.3-3.3,9.3-7.3
    c6.3-8,21.1-31.2,21.1-31.2c19.3-33.9,33.2-69.7,41.8-105.7c1.9-9.9,6.5-35.1,8.5-48.6c0,0-0.1,0-0.1-0.1
    C832.7,360.9,800.5,261.5,726.3,198.9z M687,382.8c12.5-15.1,33.2-22.5,46.2-16.6c13,5.9,13.5,23,1,38.1
    c-12.5,15.1-33.2,22.5-46.2,16.6C674.9,414.9,674.5,397.9,687,382.8z"/>
</g>
</svg>
